# xmcd
#
# Track frame offsets:
#	150
#	15829
#	28272
#	45470
#	57777
#	71567
#	85320
#	101944
#	115660
#	128630
#
# Disc length: 1967 seconds
#
# Revision: 3
# Processed by: cddbd v1.5.2PL0 Copyright (c) Steve Scherf et al.
# Submitted via: audiograbber 1.83.01
#
DISCID=7a07ad0a
DTITLE=Kris Kristofferson - The Complete Monument and Columbia Albums Collection 
DTITLE=(CD 10) - Shake Hands With The Devil [remastered 2016]
DYEAR=1979
DGENRE=Singer/Songwriter
TTITLE0=Shake Hands With The Devil
TTITLE1=Prove It To You One More Time Again
TTITLE2=Whiskey, Whiskey
TTITLE3=Lucky In Love
TTITLE4=Seadream
TTITLE5=Killer Barracuda
TTITLE6=Come Sundown
TTITLE7=Michoacan [from the motion picture Cisco Pike]
TTITLE8=Once More With Feeling
TTITLE9=Fallen Angel
EXTD=
EXTT0=
EXTT1=
EXTT2=
EXTT3=
EXTT4=
EXTT5=
EXTT6=
EXTT7=
EXTT8=
EXTT9=
PLAYORDER=
